<?xml version="1.0" encoding="UTF-8" standalone="no"?>
<!DOCTYPE svg PUBLIC "-//W3C//DTD SVG 1.1//EN"
 "http://www.w3.org/Graphics/SVG/1.1/DTD/svg11.dtd">
<!-- Generated by graphviz version 2.47.3 (20210619.1520)
 -->
<!-- Title: dependencies Pages: 1 -->
<svg width="5562pt" height="247pt"
 viewBox="0.00 0.00 5562.00 246.80" xmlns="http://www.w3.org/2000/svg" xmlns:xlink="http://www.w3.org/1999/xlink">
<g id="graph0" class="graph" transform="scale(1 1) rotate(0) translate(4 242.8)">
<title>dependencies</title>
<polygon fill="white" stroke="transparent" points="-4,4 -4,-242.8 5558,-242.8 5558,4 -4,4"/>
<text text-anchor="middle" x="2777" y="-8.2" font-family="sans-serif" font-size="14.00">dependencies</text>
<g id="clust1" class="cluster">
<title>cluster_AppModule</title>
<polygon fill="none" stroke="black" stroke-dasharray="1,5" points="8,-32.8 8,-230.8 5546,-230.8 5546,-32.8 8,-32.8"/>
</g>
<g id="clust32" class="cluster">
<title>cluster_AppModule_bootstrap</title>
<polygon fill="none" stroke="black" points="2565,-170.8 2565,-222.8 2689,-222.8 2689,-170.8 2565,-170.8"/>
</g>
<g id="clust30" class="cluster">
<title>cluster_AppModule_imports</title>
<polygon fill="none" stroke="black" points="5394,-40.8 5394,-92.8 5538,-92.8 5538,-40.8 5394,-40.8"/>
</g>
<g id="clust33" class="cluster">
<title>cluster_AppModule_providers</title>
<polygon fill="none" stroke="black" points="4800,-40.8 4800,-92.8 5386,-92.8 5386,-40.8 4800,-40.8"/>
</g>
<g id="clust2" class="cluster">
<title>cluster_AppModule_declarations</title>
<polygon fill="none" stroke="black" points="16,-40.8 16,-92.8 4792,-92.8 4792,-40.8 16,-40.8"/>
</g>
<!-- AddRoomSelectionComponent -->
<g id="node1" class="node">
<title>AddRoomSelectionComponent</title>
<polygon fill="#ffffb3" stroke="black" points="4783.76,-84.8 4592.24,-84.8 4592.24,-48.8 4783.76,-48.8 4783.76,-84.8"/>
<text text-anchor="middle" x="4688" y="-62.6" font-family="Times,serif" font-size="14.00">AddRoomSelectionComponent</text>
</g>
<!-- AppModule -->
<g id="node28" class="node">
<title>AppModule</title>
<polygon fill="#8dd3c7" stroke="black" points="2668.66,-149.8 2665.66,-153.8 2644.66,-153.8 2641.66,-149.8 2585.34,-149.8 2585.34,-113.8 2668.66,-113.8 2668.66,-149.8"/>
<text text-anchor="middle" x="2627" y="-127.6" font-family="Times,serif" font-size="14.00">AppModule</text>
</g>
<!-- AddRoomSelectionComponent&#45;&gt;AppModule -->
<g id="edge1" class="edge">
<title>AddRoomSelectionComponent&#45;&gt;AppModule</title>
<path fill="none" stroke="black" d="M4688,-84.84C4688,-106.46 4688,-139.8 4688,-139.8 4688,-139.8 2679.1,-139.8 2679.1,-139.8"/>
<polygon fill="black" stroke="black" points="2679.1,-136.3 2669.1,-139.8 2679.1,-143.3 2679.1,-136.3"/>
</g>
<!-- AdminResourcesComponent -->
<g id="node2" class="node">
<title>AdminResourcesComponent</title>
<polygon fill="#ffffb3" stroke="black" points="4573.75,-84.8 4396.25,-84.8 4396.25,-48.8 4573.75,-48.8 4573.75,-84.8"/>
<text text-anchor="middle" x="4485" y="-62.6" font-family="Times,serif" font-size="14.00">AdminResourcesComponent</text>
</g>
<!-- AdminResourcesComponent&#45;&gt;AppModule -->
<g id="edge2" class="edge">
<title>AdminResourcesComponent&#45;&gt;AppModule</title>
<path fill="none" stroke="black" d="M4455.37,-84.93C4455.37,-105.37 4455.37,-135.8 4455.37,-135.8 4455.37,-135.8 2679.06,-135.8 2679.06,-135.8"/>
<polygon fill="black" stroke="black" points="2679.06,-132.3 2669.06,-135.8 2679.06,-139.3 2679.06,-132.3"/>
</g>
<!-- AdminResourcesComponent&#45;&gt;AppModule -->
<g id="edge3" class="edge">
<title>AdminResourcesComponent&#45;&gt;AppModule</title>
<path fill="none" stroke="black" d="M4514.63,-85.08C4514.63,-106.12 4514.63,-137.8 4514.63,-137.8 4514.63,-137.8 2679.07,-137.8 2679.07,-137.8"/>
<polygon fill="black" stroke="black" points="2679.07,-134.3 2669.07,-137.8 2679.07,-141.3 2679.07,-134.3"/>
</g>
<!-- AdministratorPanelComponent -->
<g id="node3" class="node">
<title>AdministratorPanelComponent</title>
<polygon fill="#ffffb3" stroke="black" points="4378.47,-84.8 4187.53,-84.8 4187.53,-48.8 4378.47,-48.8 4378.47,-84.8"/>
<text text-anchor="middle" x="4283" y="-62.6" font-family="Times,serif" font-size="14.00">AdministratorPanelComponent</text>
</g>
<!-- AdministratorPanelComponent&#45;&gt;AppModule -->
<g id="edge4" class="edge">
<title>AdministratorPanelComponent&#45;&gt;AppModule</title>
<path fill="none" stroke="black" d="M4283,-85.11C4283,-104.95 4283,-133.8 4283,-133.8 4283,-133.8 2678.76,-133.8 2678.76,-133.8"/>
<polygon fill="black" stroke="black" points="2678.76,-130.3 2668.76,-133.8 2678.76,-137.3 2678.76,-130.3"/>
</g>
<!-- AppComponent -->
<g id="node4" class="node">
<title>AppComponent</title>
<polygon fill="#ffffb3" stroke="black" points="4169.94,-84.8 4064.06,-84.8 4064.06,-48.8 4169.94,-48.8 4169.94,-84.8"/>
<text text-anchor="middle" x="4117" y="-62.6" font-family="Times,serif" font-size="14.00">AppComponent</text>
</g>
<!-- AppComponent&#45;&gt;AppModule -->
<g id="edge5" class="edge">
<title>AppComponent&#45;&gt;AppModule</title>
<path fill="none" stroke="black" d="M4117,-84.97C4117,-103.89 4117,-130.8 4117,-130.8 4117,-130.8 2678.8,-130.8 2678.8,-130.8"/>
<polygon fill="black" stroke="black" points="2678.8,-127.3 2668.8,-130.8 2678.8,-134.3 2678.8,-127.3"/>
</g>
<!-- AuthenticatedComponent -->
<g id="node5" class="node">
<title>AuthenticatedComponent</title>
<polygon fill="#ffffb3" stroke="black" points="4045.86,-84.8 3886.14,-84.8 3886.14,-48.8 4045.86,-48.8 4045.86,-84.8"/>
<text text-anchor="middle" x="3966" y="-62.6" font-family="Times,serif" font-size="14.00">AuthenticatedComponent</text>
</g>
<!-- AuthenticatedComponent&#45;&gt;AppModule -->
<g id="edge6" class="edge">
<title>AuthenticatedComponent&#45;&gt;AppModule</title>
<path fill="none" stroke="black" d="M3966,-85.07C3966,-103.36 3966,-128.8 3966,-128.8 3966,-128.8 2678.91,-128.8 2678.91,-128.8"/>
<polygon fill="black" stroke="black" points="2678.91,-125.3 2668.91,-128.8 2678.91,-132.3 2678.91,-125.3"/>
</g>
<!-- AvailableResourcesComponent -->
<g id="node6" class="node">
<title>AvailableResourcesComponent</title>
<polygon fill="#ffffb3" stroke="black" points="3867.79,-84.8 3674.21,-84.8 3674.21,-48.8 3867.79,-48.8 3867.79,-84.8"/>
<text text-anchor="middle" x="3771" y="-62.6" font-family="Times,serif" font-size="14.00">AvailableResourcesComponent</text>
</g>
<!-- AvailableResourcesComponent&#45;&gt;AppModule -->
<g id="edge7" class="edge">
<title>AvailableResourcesComponent&#45;&gt;AppModule</title>
<path fill="none" stroke="black" d="M3771,-84.8C3771,-102.48 3771,-126.8 3771,-126.8 3771,-126.8 2678.73,-126.8 2678.73,-126.8"/>
<polygon fill="black" stroke="black" points="2678.73,-123.3 2668.73,-126.8 2678.73,-130.3 2678.73,-123.3"/>
</g>
<!-- ClearFieldComponent -->
<g id="node7" class="node">
<title>ClearFieldComponent</title>
<polygon fill="#ffffb3" stroke="black" points="3656.43,-84.8 3515.57,-84.8 3515.57,-48.8 3656.43,-48.8 3656.43,-84.8"/>
<text text-anchor="middle" x="3586" y="-62.6" font-family="Times,serif" font-size="14.00">ClearFieldComponent</text>
</g>
<!-- ClearFieldComponent&#45;&gt;AppModule -->
<g id="edge8" class="edge">
<title>ClearFieldComponent&#45;&gt;AppModule</title>
<path fill="none" stroke="black" d="M3586,-84.83C3586,-101.86 3586,-124.8 3586,-124.8 3586,-124.8 2678.82,-124.8 2678.82,-124.8"/>
<polygon fill="black" stroke="black" points="2678.82,-121.3 2668.82,-124.8 2678.82,-128.3 2678.82,-121.3"/>
</g>
<!-- CourseComponent -->
<g id="node8" class="node">
<title>CourseComponent</title>
<polygon fill="#ffffb3" stroke="black" points="3497.49,-84.8 3376.51,-84.8 3376.51,-48.8 3497.49,-48.8 3497.49,-84.8"/>
<text text-anchor="middle" x="3437" y="-62.6" font-family="Times,serif" font-size="14.00">CourseComponent</text>
</g>
<!-- CourseComponent&#45;&gt;AppModule -->
<g id="edge9" class="edge">
<title>CourseComponent&#45;&gt;AppModule</title>
<path fill="none" stroke="black" d="M3437,-84.83C3437,-101.2 3437,-122.8 3437,-122.8 3437,-122.8 2678.84,-122.8 2678.84,-122.8"/>
<polygon fill="black" stroke="black" points="2678.84,-119.3 2668.84,-122.8 2678.84,-126.3 2678.84,-119.3"/>
</g>
<!-- CourseEditionFieldComponent -->
<g id="node9" class="node">
<title>CourseEditionFieldComponent</title>
<polygon fill="#ffffb3" stroke="black" points="3358.49,-84.8 3167.51,-84.8 3167.51,-48.8 3358.49,-48.8 3358.49,-84.8"/>
<text text-anchor="middle" x="3263" y="-62.6" font-family="Times,serif" font-size="14.00">CourseEditionFieldComponent</text>
</g>
<!-- CourseEditionFieldComponent&#45;&gt;AppModule -->
<g id="edge10" class="edge">
<title>CourseEditionFieldComponent&#45;&gt;AppModule</title>
<path fill="none" stroke="black" d="M3263,-85.08C3263,-100.75 3263,-120.8 3263,-120.8 3263,-120.8 2678.73,-120.8 2678.73,-120.8"/>
<polygon fill="black" stroke="black" points="2678.73,-117.3 2668.73,-120.8 2678.73,-124.3 2678.73,-117.3"/>
</g>
<!-- CourseFieldComponent -->
<g id="node10" class="node">
<title>CourseFieldComponent</title>
<polygon fill="#ffffb3" stroke="black" points="3149.77,-84.8 3000.23,-84.8 3000.23,-48.8 3149.77,-48.8 3149.77,-84.8"/>
<text text-anchor="middle" x="3075" y="-62.6" font-family="Times,serif" font-size="14.00">CourseFieldComponent</text>
</g>
<!-- CourseFieldComponent&#45;&gt;AppModule -->
<g id="edge11" class="edge">
<title>CourseFieldComponent&#45;&gt;AppModule</title>
<path fill="none" stroke="black" d="M3075,-84.99C3075,-99.98 3075,-118.8 3075,-118.8 3075,-118.8 2678.74,-118.8 2678.74,-118.8"/>
<polygon fill="black" stroke="black" points="2678.74,-115.3 2668.74,-118.8 2678.74,-122.3 2678.74,-115.3"/>
</g>
<!-- CourseTypeFieldComponent -->
<g id="node11" class="node">
<title>CourseTypeFieldComponent</title>
<polygon fill="#ffffb3" stroke="black" points="2982.04,-84.8 2803.96,-84.8 2803.96,-48.8 2982.04,-48.8 2982.04,-84.8"/>
<text text-anchor="middle" x="2893" y="-62.6" font-family="Times,serif" font-size="14.00">CourseTypeFieldComponent</text>
</g>
<!-- CourseTypeFieldComponent&#45;&gt;AppModule -->
<g id="edge12" class="edge">
<title>CourseTypeFieldComponent&#45;&gt;AppModule</title>
<path fill="none" stroke="black" d="M2893,-84.85C2893,-99.17 2893,-116.8 2893,-116.8 2893,-116.8 2678.86,-116.8 2678.86,-116.8"/>
<polygon fill="black" stroke="black" points="2678.86,-113.3 2668.86,-116.8 2678.86,-120.3 2678.86,-113.3"/>
</g>
<!-- ExportFieldComponent -->
<g id="node12" class="node">
<title>ExportFieldComponent</title>
<polygon fill="#ffffb3" stroke="black" points="2786.21,-84.8 2637.79,-84.8 2637.79,-48.8 2786.21,-48.8 2786.21,-84.8"/>
<text text-anchor="middle" x="2712" y="-62.6" font-family="Times,serif" font-size="14.00">ExportFieldComponent</text>
</g>
<!-- ExportFieldComponent&#45;&gt;AppModule -->
<g id="edge13" class="edge">
<title>ExportFieldComponent&#45;&gt;AppModule</title>
<path fill="none" stroke="black" d="M2653.36,-84.91C2653.36,-84.91 2653.36,-103.79 2653.36,-103.79"/>
<polygon fill="black" stroke="black" points="2649.86,-103.79 2653.36,-113.79 2656.86,-103.79 2649.86,-103.79"/>
</g>
<!-- FullScheduleComponent -->
<g id="node13" class="node">
<title>FullScheduleComponent</title>
<polygon fill="#ffffb3" stroke="black" points="2619.71,-84.8 2464.29,-84.8 2464.29,-48.8 2619.71,-48.8 2619.71,-84.8"/>
<text text-anchor="middle" x="2542" y="-62.6" font-family="Times,serif" font-size="14.00">FullScheduleComponent</text>
</g>
<!-- FullScheduleComponent&#45;&gt;AppModule -->
<g id="edge14" class="edge">
<title>FullScheduleComponent&#45;&gt;AppModule</title>
<path fill="none" stroke="black" d="M2602.39,-84.91C2602.39,-84.91 2602.39,-103.79 2602.39,-103.79"/>
<polygon fill="black" stroke="black" points="2598.89,-103.79 2602.39,-113.79 2605.89,-103.79 2598.89,-103.79"/>
</g>
<!-- GroupFieldComponent -->
<g id="node14" class="node">
<title>GroupFieldComponent</title>
<polygon fill="#ffffb3" stroke="black" points="2445.88,-84.8 2300.12,-84.8 2300.12,-48.8 2445.88,-48.8 2445.88,-84.8"/>
<text text-anchor="middle" x="2373" y="-62.6" font-family="Times,serif" font-size="14.00">GroupFieldComponent</text>
</g>
<!-- GroupFieldComponent&#45;&gt;AppModule -->
<g id="edge15" class="edge">
<title>GroupFieldComponent&#45;&gt;AppModule</title>
<path fill="none" stroke="black" d="M2373,-84.85C2373,-99.17 2373,-116.8 2373,-116.8 2373,-116.8 2575.34,-116.8 2575.34,-116.8"/>
<polygon fill="black" stroke="black" points="2575.34,-120.3 2585.34,-116.8 2575.34,-113.3 2575.34,-120.3"/>
</g>
<!-- ImportFieldComponent -->
<g id="node15" class="node">
<title>ImportFieldComponent</title>
<polygon fill="#ffffb3" stroke="black" points="2282.21,-84.8 2133.79,-84.8 2133.79,-48.8 2282.21,-48.8 2282.21,-84.8"/>
<text text-anchor="middle" x="2208" y="-62.6" font-family="Times,serif" font-size="14.00">ImportFieldComponent</text>
</g>
<!-- ImportFieldComponent&#45;&gt;AppModule -->
<g id="edge16" class="edge">
<title>ImportFieldComponent&#45;&gt;AppModule</title>
<path fill="none" stroke="black" d="M2208,-84.99C2208,-99.98 2208,-118.8 2208,-118.8 2208,-118.8 2575.29,-118.8 2575.29,-118.8"/>
<polygon fill="black" stroke="black" points="2575.29,-122.3 2585.29,-118.8 2575.29,-115.3 2575.29,-122.3"/>
</g>
<!-- MyCoursesComponent -->
<g id="node16" class="node">
<title>MyCoursesComponent</title>
<polygon fill="#ffffb3" stroke="black" points="2115.88,-84.8 1970.12,-84.8 1970.12,-48.8 2115.88,-48.8 2115.88,-84.8"/>
<text text-anchor="middle" x="2043" y="-62.6" font-family="Times,serif" font-size="14.00">MyCoursesComponent</text>
</g>
<!-- MyCoursesComponent&#45;&gt;AppModule -->
<g id="edge17" class="edge">
<title>MyCoursesComponent&#45;&gt;AppModule</title>
<path fill="none" stroke="black" d="M2043,-85.08C2043,-100.75 2043,-120.8 2043,-120.8 2043,-120.8 2575,-120.8 2575,-120.8"/>
<polygon fill="black" stroke="black" points="2575,-124.3 2585,-120.8 2575,-117.3 2575,-124.3"/>
</g>
<!-- PersonalScheduleComponent -->
<g id="node17" class="node">
<title>PersonalScheduleComponent</title>
<polygon fill="#ffffb3" stroke="black" points="1952.36,-84.8 1771.64,-84.8 1771.64,-48.8 1952.36,-48.8 1952.36,-84.8"/>
<text text-anchor="middle" x="1862" y="-62.6" font-family="Times,serif" font-size="14.00">PersonalScheduleComponent</text>
</g>
<!-- PersonalScheduleComponent&#45;&gt;AppModule -->
<g id="edge18" class="edge">
<title>PersonalScheduleComponent&#45;&gt;AppModule</title>
<path fill="none" stroke="black" d="M1831.86,-84.83C1831.86,-101.86 1831.86,-124.8 1831.86,-124.8 1831.86,-124.8 2575.09,-124.8 2575.09,-124.8"/>
<polygon fill="black" stroke="black" points="2575.09,-128.3 2585.09,-124.8 2575.09,-121.3 2575.09,-128.3"/>
</g>
<!-- PersonalScheduleComponent&#45;&gt;AppModule -->
<g id="edge19" class="edge">
<title>PersonalScheduleComponent&#45;&gt;AppModule</title>
<path fill="none" stroke="black" d="M1892.14,-84.83C1892.14,-101.2 1892.14,-122.8 1892.14,-122.8 1892.14,-122.8 2575.12,-122.8 2575.12,-122.8"/>
<polygon fill="black" stroke="black" points="2575.12,-126.3 2585.12,-122.8 2575.12,-119.3 2575.12,-126.3"/>
</g>
<!-- ProfileComponent -->
<g id="node18" class="node">
<title>ProfileComponent</title>
<polygon fill="#ffffb3" stroke="black" points="1753.93,-84.8 1634.07,-84.8 1634.07,-48.8 1753.93,-48.8 1753.93,-84.8"/>
<text text-anchor="middle" x="1694" y="-62.6" font-family="Times,serif" font-size="14.00">ProfileComponent</text>
</g>
<!-- ProfileComponent&#45;&gt;AppModule -->
<g id="edge20" class="edge">
<title>ProfileComponent&#45;&gt;AppModule</title>
<path fill="none" stroke="black" d="M1694,-84.8C1694,-102.48 1694,-126.8 1694,-126.8 1694,-126.8 2575.1,-126.8 2575.1,-126.8"/>
<polygon fill="black" stroke="black" points="2575.1,-130.3 2585.1,-126.8 2575.1,-123.3 2575.1,-130.3"/>
</g>
<!-- RoomFieldComponent -->
<g id="node19" class="node">
<title>RoomFieldComponent</title>
<polygon fill="#ffffb3" stroke="black" points="1616.34,-84.8 1471.66,-84.8 1471.66,-48.8 1616.34,-48.8 1616.34,-84.8"/>
<text text-anchor="middle" x="1544" y="-62.6" font-family="Times,serif" font-size="14.00">RoomFieldComponent</text>
</g>
<!-- RoomFieldComponent&#45;&gt;AppModule -->
<g id="edge21" class="edge">
<title>RoomFieldComponent&#45;&gt;AppModule</title>
<path fill="none" stroke="black" d="M1544,-85.07C1544,-103.36 1544,-128.8 1544,-128.8 1544,-128.8 2575.21,-128.8 2575.21,-128.8"/>
<polygon fill="black" stroke="black" points="2575.21,-132.3 2585.21,-128.8 2575.21,-125.3 2575.21,-132.3"/>
</g>
<!-- RoomSelectionComponent -->
<g id="node20" class="node">
<title>RoomSelectionComponent</title>
<polygon fill="#ffffb3" stroke="black" points="1453.66,-84.8 1286.34,-84.8 1286.34,-48.8 1453.66,-48.8 1453.66,-84.8"/>
<text text-anchor="middle" x="1370" y="-62.6" font-family="Times,serif" font-size="14.00">RoomSelectionComponent</text>
</g>
<!-- RoomSelectionComponent&#45;&gt;AppModule -->
<g id="edge22" class="edge">
<title>RoomSelectionComponent&#45;&gt;AppModule</title>
<path fill="none" stroke="black" d="M1342.06,-85.11C1342.06,-104.95 1342.06,-133.8 1342.06,-133.8 1342.06,-133.8 2575.34,-133.8 2575.34,-133.8"/>
<polygon fill="black" stroke="black" points="2575.34,-137.3 2585.34,-133.8 2575.34,-130.3 2575.34,-137.3"/>
</g>
<!-- RoomSelectionComponent&#45;&gt;AppModule -->
<g id="edge23" class="edge">
<title>RoomSelectionComponent&#45;&gt;AppModule</title>
<path fill="none" stroke="black" d="M1397.94,-84.97C1397.94,-103.89 1397.94,-130.8 1397.94,-130.8 1397.94,-130.8 2575.05,-130.8 2575.05,-130.8"/>
<polygon fill="black" stroke="black" points="2575.05,-134.3 2585.05,-130.8 2575.05,-127.3 2575.05,-134.3"/>
</g>
<!-- RoomTypeFieldComponent -->
<g id="node21" class="node">
<title>RoomTypeFieldComponent</title>
<polygon fill="#ffffb3" stroke="black" points="1268.61,-84.8 1095.39,-84.8 1095.39,-48.8 1268.61,-48.8 1268.61,-84.8"/>
<text text-anchor="middle" x="1182" y="-62.6" font-family="Times,serif" font-size="14.00">RoomTypeFieldComponent</text>
</g>
<!-- RoomTypeFieldComponent&#45;&gt;AppModule -->
<g id="edge24" class="edge">
<title>RoomTypeFieldComponent&#45;&gt;AppModule</title>
<path fill="none" stroke="black" d="M1182,-84.93C1182,-105.37 1182,-135.8 1182,-135.8 1182,-135.8 2575.31,-135.8 2575.31,-135.8"/>
<polygon fill="black" stroke="black" points="2575.31,-139.3 2585.31,-135.8 2575.31,-132.3 2575.31,-139.3"/>
</g>
<!-- ScheduleComponent -->
<g id="node22" class="node">
<title>ScheduleComponent</title>
<polygon fill="#ffffb3" stroke="black" points="1077.15,-84.8 944.85,-84.8 944.85,-48.8 1077.15,-48.8 1077.15,-84.8"/>
<text text-anchor="middle" x="1011" y="-62.6" font-family="Times,serif" font-size="14.00">ScheduleComponent</text>
</g>
<!-- ScheduleComponent&#45;&gt;AppModule -->
<g id="edge25" class="edge">
<title>ScheduleComponent&#45;&gt;AppModule</title>
<path fill="none" stroke="black" d="M1011,-85.08C1011,-106.12 1011,-137.8 1011,-137.8 1011,-137.8 2575.02,-137.8 2575.02,-137.8"/>
<polygon fill="black" stroke="black" points="2575.02,-141.3 2585.02,-137.8 2575.02,-134.3 2575.02,-141.3"/>
</g>
<!-- ScheduledChangesViewComponent -->
<g id="node23" class="node">
<title>ScheduledChangesViewComponent</title>
<polygon fill="#ffffb3" stroke="black" points="927.18,-84.8 708.82,-84.8 708.82,-48.8 927.18,-48.8 927.18,-84.8"/>
<text text-anchor="middle" x="818" y="-62.6" font-family="Times,serif" font-size="14.00">ScheduledChangesViewComponent</text>
</g>
<!-- ScheduledChangesViewComponent&#45;&gt;AppModule -->
<g id="edge26" class="edge">
<title>ScheduledChangesViewComponent&#45;&gt;AppModule</title>
<path fill="none" stroke="black" d="M818,-84.84C818,-106.46 818,-139.8 818,-139.8 818,-139.8 2574.95,-139.8 2574.95,-139.8"/>
<polygon fill="black" stroke="black" points="2574.95,-143.3 2584.95,-139.8 2574.95,-136.3 2574.95,-143.3"/>
</g>
<!-- SelectViewComponent -->
<g id="node24" class="node">
<title>SelectViewComponent</title>
<polygon fill="#ffffb3" stroke="black" points="690.86,-84.8 545.14,-84.8 545.14,-48.8 690.86,-48.8 690.86,-84.8"/>
<text text-anchor="middle" x="618" y="-62.6" font-family="Times,serif" font-size="14.00">SelectViewComponent</text>
</g>
<!-- SelectViewComponent&#45;&gt;AppModule -->
<g id="edge27" class="edge">
<title>SelectViewComponent&#45;&gt;AppModule</title>
<path fill="none" stroke="black" d="M618,-84.96C618,-107.15 618,-141.8 618,-141.8 618,-141.8 2575.04,-141.8 2575.04,-141.8"/>
<polygon fill="black" stroke="black" points="2575.04,-145.3 2585.04,-141.8 2575.04,-138.3 2575.04,-145.3"/>
</g>
<!-- SettingsFieldComponent -->
<g id="node25" class="node">
<title>SettingsFieldComponent</title>
<polygon fill="#ffffb3" stroke="black" points="526.72,-84.8 371.28,-84.8 371.28,-48.8 526.72,-48.8 526.72,-84.8"/>
<text text-anchor="middle" x="449" y="-62.6" font-family="Times,serif" font-size="14.00">SettingsFieldComponent</text>
</g>
<!-- SettingsFieldComponent&#45;&gt;AppModule -->
<g id="edge28" class="edge">
<title>SettingsFieldComponent&#45;&gt;AppModule</title>
<path fill="none" stroke="black" d="M449,-85.05C449,-107.82 449,-143.8 449,-143.8 449,-143.8 2574.95,-143.8 2574.95,-143.8"/>
<polygon fill="black" stroke="black" points="2574.95,-147.3 2584.95,-143.8 2574.95,-140.3 2574.95,-147.3"/>
</g>
<!-- StudentScheduleComponent -->
<g id="node26" class="node">
<title>StudentScheduleComponent</title>
<polygon fill="#ffffb3" stroke="black" points="353.93,-84.8 178.07,-84.8 178.07,-48.8 353.93,-48.8 353.93,-84.8"/>
<text text-anchor="middle" x="266" y="-62.6" font-family="Times,serif" font-size="14.00">StudentScheduleComponent</text>
</g>
<!-- StudentScheduleComponent&#45;&gt;AppModule -->
<g id="edge29" class="edge">
<title>StudentScheduleComponent&#45;&gt;AppModule</title>
<path fill="none" stroke="black" d="M266,-85.12C266,-108.46 266,-145.8 266,-145.8 266,-145.8 2575.27,-145.8 2575.27,-145.8"/>
<polygon fill="black" stroke="black" points="2575.27,-149.3 2585.27,-145.8 2575.27,-142.3 2575.27,-149.3"/>
</g>
<!-- UserFieldComponent -->
<g id="node27" class="node">
<title>UserFieldComponent</title>
<polygon fill="#ffffb3" stroke="black" points="160.04,-84.8 23.96,-84.8 23.96,-48.8 160.04,-48.8 160.04,-84.8"/>
<text text-anchor="middle" x="92" y="-62.6" font-family="Times,serif" font-size="14.00">UserFieldComponent</text>
</g>
<!-- UserFieldComponent&#45;&gt;AppModule -->
<g id="edge30" class="edge">
<title>UserFieldComponent&#45;&gt;AppModule</title>
<path fill="none" stroke="black" d="M92,-85.18C92,-109.08 92,-147.8 92,-147.8 92,-147.8 2575.12,-147.8 2575.12,-147.8"/>
<polygon fill="black" stroke="black" points="2575.12,-151.3 2585.12,-147.8 2575.12,-144.3 2575.12,-151.3"/>
</g>
<!-- AppComponent  -->
<g id="node30" class="node">
<title>AppComponent </title>
<polygon fill="#80b1d3" stroke="black" points="2681.44,-214.8 2572.56,-214.8 2572.56,-178.8 2681.44,-178.8 2681.44,-214.8"/>
<text text-anchor="middle" x="2627" y="-192.6" font-family="Times,serif" font-size="14.00">AppComponent </text>
</g>
<!-- AppModule&#45;&gt;AppComponent  -->
<g id="edge32" class="edge">
<title>AppModule&#45;&gt;AppComponent </title>
<path fill="none" stroke="black" stroke-dasharray="1,5" d="M2627,-149.91C2627,-149.91 2627,-168.79 2627,-168.79"/>
<polygon fill="black" stroke="black" points="2623.5,-168.79 2627,-178.79 2630.5,-168.79 2623.5,-168.79"/>
</g>
<!-- AppRoutingModule -->
<g id="node29" class="node">
<title>AppRoutingModule</title>
<polygon fill="#8dd3c7" stroke="black" points="5530.27,-84.8 5527.27,-88.8 5506.27,-88.8 5503.27,-84.8 5401.73,-84.8 5401.73,-48.8 5530.27,-48.8 5530.27,-84.8"/>
<text text-anchor="middle" x="5466" y="-62.6" font-family="Times,serif" font-size="14.00">AppRoutingModule</text>
</g>
<!-- AppRoutingModule&#45;&gt;AppModule -->
<g id="edge31" class="edge">
<title>AppRoutingModule&#45;&gt;AppModule</title>
<path fill="none" stroke="black" d="M5466,-85.18C5466,-109.08 5466,-147.8 5466,-147.8 5466,-147.8 2678.78,-147.8 2678.78,-147.8"/>
<polygon fill="black" stroke="black" points="2678.78,-144.3 2668.78,-147.8 2678.78,-151.3 2678.78,-144.3"/>
</g>
<!-- ScheduleDesignerApiService -->
<g id="node31" class="node">
<title>ScheduleDesignerApiService</title>
<ellipse fill="#fdb462" stroke="black" cx="5253" cy="-66.8" rx="124.96" ry="18"/>
<text text-anchor="middle" x="5253" y="-62.6" font-family="Times,serif" font-size="14.00">ScheduleDesignerApiService</text>
</g>
<!-- ScheduleDesignerApiService&#45;&gt;AppModule -->
<g id="edge33" class="edge">
<title>ScheduleDesignerApiService&#45;&gt;AppModule</title>
<path fill="none" stroke="black" d="M5253,-85.12C5253,-108.46 5253,-145.8 5253,-145.8 5253,-145.8 2678.78,-145.8 2678.78,-145.8"/>
<polygon fill="black" stroke="black" points="2678.78,-142.3 2668.78,-145.8 2678.78,-149.3 2678.78,-142.3"/>
</g>
<!-- SignalrService -->
<g id="node32" class="node">
<title>SignalrService</title>
<ellipse fill="#fdb462" stroke="black" cx="5042" cy="-66.8" rx="67.77" ry="18"/>
<text text-anchor="middle" x="5042" y="-62.6" font-family="Times,serif" font-size="14.00">SignalrService</text>
</g>
<!-- SignalrService&#45;&gt;AppModule -->
<g id="edge34" class="edge">
<title>SignalrService&#45;&gt;AppModule</title>
<path fill="none" stroke="black" d="M5042,-85.05C5042,-107.82 5042,-143.8 5042,-143.8 5042,-143.8 2678.66,-143.8 2678.66,-143.8"/>
<polygon fill="black" stroke="black" points="2678.66,-140.3 2668.66,-143.8 2678.66,-147.3 2678.66,-140.3"/>
</g>
<!-- UsosApiService -->
<g id="node33" class="node">
<title>UsosApiService</title>
<ellipse fill="#fdb462" stroke="black" cx="4882" cy="-66.8" rx="73.57" ry="18"/>
<text text-anchor="middle" x="4882" y="-62.6" font-family="Times,serif" font-size="14.00">UsosApiService</text>
</g>
<!-- UsosApiService&#45;&gt;AppModule -->
<g id="edge35" class="edge">
<title>UsosApiService&#45;&gt;AppModule</title>
<path fill="none" stroke="black" d="M4882,-84.96C4882,-107.15 4882,-141.8 4882,-141.8 4882,-141.8 2679.04,-141.8 2679.04,-141.8"/>
<polygon fill="black" stroke="black" points="2679.04,-138.3 2669.04,-141.8 2679.04,-145.3 2679.04,-138.3"/>
</g>
</g>
</svg>
